HIERARCHY
ROOT Hips
{
  OFFSET 5.80788e-005 67.184 3.4734
  CHANNELS 6 Xposition Yposition Zposition Zrotation Xrotation Yrotation
  JOINT Chest
  {
    OFFSET 0 8.7983 -4.7612
    CHANNELS 6 Xposition Yposition Zposition Zrotation Xrotation Yrotation
    JOINT Chest2
    {
      OFFSET 0 8.0291 0.4195
      CHANNELS 6 Xposition Yposition Zposition Zrotation Xrotation Yrotation
      JOINT Chest3
      {
        OFFSET 0 9.9351 -2.2114
        CHANNELS 6 Xposition Yposition Zposition Zrotation Xrotation Yrotation
        JOINT Neck
        {
          OFFSET 0 22.3885 -0.4656
          CHANNELS 6 Xposition Yposition Zposition Zrotation Xrotation Yrotation
          JOINT Head
          {
            OFFSET -0.0001 12.643 3.4389
            CHANNELS 6 Xposition Yposition Zposition Zrotation Xrotation Yrotation
            End Site
            {
              OFFSET 0.0001 17.6655 0.5274
            }
          }
        }
        JOINT LeftCollar
        {
          OFFSET 2.2603 21.606 7.4023
          CHANNELS 6 Xposition Yposition Zposition Zrotation Xrotation Yrotation
          JOINT LeftShoulder
          {
            OFFSET 13.5163 -1.1332 -5.0146
            CHANNELS 6 Xposition Yposition Zposition Zrotation Xrotation Yrotation
            JOINT LeftElbow
            {
              OFFSET -0.0995 -28.05 -0.2431
              CHANNELS 6 Xposition Yposition Zposition Zrotation Xrotation Yrotation
              JOINT LeftWrist
              {
                OFFSET 0.0679 -23.3996 -0.1402
                CHANNELS 6 Xposition Yposition Zposition Zrotation Xrotation Yrotation
                JOINT LeftFinger1
                {
                  OFFSET 0.7932 -9.069 2.5189
                  CHANNELS 6 Xposition Yposition Zposition Zrotation Xrotation Yrotation
                  JOINT LeftFinger11
                  {
                    OFFSET -0.8272 -3.3923 0.5977
                    CHANNELS 6 Xposition Yposition Zposition Zrotation Xrotation Yrotation
                    JOINT LeftFinger12
                    {
                      OFFSET -0.5649 -2.3158 0.4082
                      CHANNELS 6 Xposition Yposition Zposition Zrotation Xrotation Yrotation
                      End Site
                      {
                        OFFSET -0.4919 -1.6479 0.2673
                      }
                    }
                  }
                }
                JOINT LeftFinger2
                {
                  OFFSET 0.9159 -9.2044 0.2193
                  CHANNELS 6 Xposition Yposition Zposition Zrotation Xrotation Yrotation
                  JOINT LeftFinger21
                  {
                    OFFSET 0.0117 -4.1944 -0.0248
                    CHANNELS 6 Xposition Yposition Zposition Zrotation Xrotation Yrotation
                    JOINT LeftFinger22
                    {
                      OFFSET 0.0071 -2.3249 -0.0142
                      CHANNELS 6 Xposition Yposition Zposition Zrotation Xrotation Yrotation
                      End Site
                      {
                        OFFSET -0.1475 -2.0882 0.0028
                      }
                    }
                  }
                }
                JOINT LeftFinger3
                {
                  OFFSET 0.6113 -8.7231 -2.0637
                  CHANNELS 6 Xposition Yposition Zposition Zrotation Xrotation Yrotation
                  JOINT LeftFinger31
                  {
                    OFFSET -0.1927 -3.8059 -0.2383
                    CHANNELS 6 Xposition Yposition Zposition Zrotation Xrotation Yrotation
                    JOINT LeftFinger32
                    {
                      OFFSET -0.1091 -2.1688 -0.1362
                      CHANNELS 6 Xposition Yposition Zposition Zrotation Xrotation Yrotation
                      End Site
                      {
                        OFFSET -0.2358 -1.9176 -0.0906
                      }
                    }
                  }
                }
                JOINT LeftFinger4
                {
                  OFFSET -0.6151 -8.0947 -3.5641
                  CHANNELS 6 Xposition Yposition Zposition Zrotation Xrotation Yrotation
                  JOINT LeftFinger41
                  {
                    OFFSET -0.4882 -2.341 -0.6462
                    CHANNELS 6 Xposition Yposition Zposition Zrotation Xrotation Yrotation
                    JOINT LeftFinger42
                    {
                      OFFSET -0.3575 -1.7167 -0.4742
                      CHANNELS 6 Xposition Yposition Zposition Zrotation Xrotation Yrotation
                      End Site
                      {
                        OFFSET -0.4187 -1.5237 -0.3496
                      }
                    }
                  }
                }
                JOINT LeftFinger0
                {
                  OFFSET -1.42 -1.8761 1.4223
                  CHANNELS 6 Xposition Yposition Zposition Zrotation Xrotation Yrotation
                  JOINT LeftFinger01
                  {
                    OFFSET -1.1471 -3.4929 2.6334
                    CHANNELS 6 Xposition Yposition Zposition Zrotation Xrotation Yrotation
                    JOINT LeftFinger02
                    {
                      OFFSET -0.823 -2.3 1.6571
                      CHANNELS 6 Xposition Yposition Zposition Zrotation Xrotation Yrotation
                      End Site
                      {
                        OFFSET -0.5822 -1.6914 1.1582
                      }
                    }
                  }
                }
              }
            }
          }
        }
        JOINT RightCollar
        {
          OFFSET -2.2603 21.606 7.4023
          CHANNELS 6 Xposition Yposition Zposition Zrotation Xrotation Yrotation
          JOINT RightShoulder
          {
            OFFSET -13.5187 -1.1334 -5.0155
            CHANNELS 6 Xposition Yposition Zposition Zrotation Xrotation Yrotation
            JOINT RightElbow
            {
              OFFSET 0.0994 -28.0499 -0.2431
              CHANNELS 6 Xposition Yposition Zposition Zrotation Xrotation Yrotation
              JOINT RightWrist
              {
                OFFSET -0.0679 -23.3996 -0.1402
                CHANNELS 6 Xposition Yposition Zposition Zrotation Xrotation Yrotation
                JOINT RightFinger1
                {
                  OFFSET -0.7932 -9.0691 2.5189
                  CHANNELS 6 Xposition Yposition Zposition Zrotation Xrotation Yrotation
                  JOINT RightFinger11
                  {
                    OFFSET 0.8272 -3.3923 0.5977
                    CHANNELS 6 Xposition Yposition Zposition Zrotation Xrotation Yrotation
                    JOINT RightFinger12
                    {
                      OFFSET 0.565 -2.3158 0.4082
                      CHANNELS 6 Xposition Yposition Zposition Zrotation Xrotation Yrotation
                      End Site
                      {
                        OFFSET 0.4919 -1.6479 0.2673
                      }
                    }
                  }
                }
                JOINT RightFinger2
                {
                  OFFSET -0.916 -9.2044 0.2193
                  CHANNELS 6 Xposition Yposition Zposition Zrotation Xrotation Yrotation
                  JOINT RightFinger21
                  {
                    OFFSET -0.0117 -4.1944 -0.0248
                    CHANNELS 6 Xposition Yposition Zposition Zrotation Xrotation Yrotation
                    JOINT RightFinger22
                    {
                      OFFSET -0.0071 -2.3249 -0.0142
                      CHANNELS 6 Xposition Yposition Zposition Zrotation Xrotation Yrotation
                      End Site
                      {
                        OFFSET 0.1475 -2.0882 0.0028
                      }
                    }
                  }
                }
                JOINT RightFinger3
                {
                  OFFSET -0.6113 -8.7231 -2.0637
                  CHANNELS 6 Xposition Yposition Zposition Zrotation Xrotation Yrotation
                  JOINT RightFinger31
                  {
                    OFFSET 0.1927 -3.8059 -0.2383
                    CHANNELS 6 Xposition Yposition Zposition Zrotation Xrotation Yrotation
                    JOINT RightFinger32
                    {
                      OFFSET 0.1091 -2.1688 -0.1362
                      CHANNELS 6 Xposition Yposition Zposition Zrotation Xrotation Yrotation
                      End Site
                      {
                        OFFSET 0.2358 -1.9176 -0.0906
                      }
                    }
                  }
                }
                JOINT RightFinger4
                {
                  OFFSET 0.6151 -8.0947 -3.564
                  CHANNELS 6 Xposition Yposition Zposition Zrotation Xrotation Yrotation
                  JOINT RightFinger41
                  {
                    OFFSET 0.4882 -2.341 -0.6462
                    CHANNELS 6 Xposition Yposition Zposition Zrotation Xrotation Yrotation
                    JOINT RightFinger42
                    {
                      OFFSET 0.3574 -1.7166 -0.4742
                      CHANNELS 6 Xposition Yposition Zposition Zrotation Xrotation Yrotation
                      End Site
                      {
                        OFFSET 0.4187 -1.5237 -0.3496
                      }
                    }
                  }
                }
                JOINT RightFinger0
                {
                  OFFSET 1.4199 -1.8761 1.4221
                  CHANNELS 6 Xposition Yposition Zposition Zrotation Xrotation Yrotation
                  JOINT RightFinger01
                  {
                    OFFSET 1.1472 -3.4929 2.6336
                    CHANNELS 6 Xposition Yposition Zposition Zrotation Xrotation Yrotation
                    JOINT RightFinger02
                    {
                      OFFSET 0.8229 -2.3 1.6571
                      CHANNELS 6 Xposition Yposition Zposition Zrotation Xrotation Yrotation
                      End Site
                      {
                        OFFSET 0.5822 -1.6914 1.1582
                      }
                    }
                  }
                }
              }
            }
          }
        }
      }
    }
  }
  JOINT RightHip
  {
    OFFSET -9.412 3.9771 -0.7758
    CHANNELS 6 Xposition Yposition Zposition Zrotation Xrotation Yrotation
    JOINT RightKnee
    {
      OFFSET -0.7531 -40.938 0
      CHANNELS 6 Xposition Yposition Zposition Zrotation Xrotation Yrotation
      JOINT RightAnkle
      {
        OFFSET 0 -40.1986 0
        CHANNELS 6 Xposition Yposition Zposition Zrotation Xrotation Yrotation
        JOINT RightToe
        {
          OFFSET 0 -4.4182 9.239
          CHANNELS 6 Xposition Yposition Zposition Zrotation Xrotation Yrotation
          End Site
          {
            OFFSET 0 0 6.1981
          }
        }
      }
    }
  }
  JOINT LeftHip
  {
    OFFSET 9.4119 3.9773 -0.7758
    CHANNELS 6 Xposition Yposition Zposition Zrotation Xrotation Yrotation
    JOINT LeftKnee
    {
      OFFSET 0.7532 -40.9383 0
      CHANNELS 6 Xposition Yposition Zposition Zrotation Xrotation Yrotation
      JOINT LeftAnkle
      {
        OFFSET 0 -40.1986 0
        CHANNELS 6 Xposition Yposition Zposition Zrotation Xrotation Yrotation
        JOINT LeftToe
        {
          OFFSET 0 -4.4182 9.239
          CHANNELS 6 Xposition Yposition Zposition Zrotation Xrotation Yrotation
          End Site
          {
            OFFSET 0 0 6.1981
          }
        }
      }
    }
  }
}
MOTION
Frames:	4
Frame Time:	0.0333333
-23.3043 24.0705 47.5284 0.0115509 6.88682e-015 168.958 1.77636e-015 8.7983 -4.7612 1.51191 2.45982 -0.349924 3.55271e-015 8.0291 0.4195 3.04303 4.90948 -0.765828 1.77636e-015 9.9351 -2.2114 3.04304 4.90948 -0.765832 0 22.3885 -0.4656 -0.354171 15.1768 0.0986023 -0.0001 12.643 3.4389 -0.340781 -31.9621 -0.203419 2.2603 21.606 7.4023 -17.1532 -22.0366 -51.423 13.5163 -1.1332 -5.0146 4.02405 26.1042 -3.87367 -0.0995 -28.05 -0.2431 -2.42168 -27.8301 -26.4047 0.0679 -23.3996 -0.1402 -25.9966 -20.1604 -7.69575 0.7932 -9.069 2.5189 -5.62716e-006 -6.4551e-008 1.61622e-006 -0.8272 -3.3923 0.5977 -6.9519e-031 -1.25234e-014 -3.18055e-015 -0.5649 -2.3158 0.4082 5.34803e-007 8.82026e-006 -3.69386e-006 0.9159 -9.2044 0.2193 -5.62716e-006 -6.4551e-008 1.61622e-006 0.0117 -4.1944 -0.0248 -0.0128278 0.00232162 8.46788e-005 0.0071 -2.3249 -0.0142 -6.9753e-006 1.27463e-005 -9.46354e-006 0.6113 -8.7231 -2.0637 -5.62716e-006 -6.4551e-008 1.61622e-006 -0.1927 -3.8059 -0.2383 -0.0160376 0.00300231 0.000857795 -0.1091 -2.1688 -0.1362 -7.7417e-007 -9.99525e-006 1.38278e-005 -0.6151 -8.0947 -3.5641 -5.62716e-006 -6.4551e-008 1.61622e-006 -0.4882 -2.341 -0.6462 -0.0125626 0.00312865 0.00280911 -0.3575 -1.7167 -0.4742 4.60228e-006 -2.45778e-006 -8.28763e-006 -1.42 -1.8761 1.4223 -5.62716e-006 -6.4551e-008 1.61622e-006 -1.1471 -3.4929 2.6334 -6.9519e-031 -1.25234e-014 -3.18055e-015 -0.823 -2.3 1.6571 5.34803e-007 8.82026e-006 -3.69386e-006 -2.2603 21.606 7.4023 5.53905 -14.5215 5.15205 -13.5187 -1.1334 -5.0155 -96.8166 -14.1461 -51.2043 0.0994 -28.0499 -0.2431 -14.6766 -80.0922 5.2231 -0.0679 -23.3996 -0.1402 1.2195 3.41062 -27.0028 -0.7932 -9.0691 2.5189 -9.54166e-015 -1.2921e-014 6.75868e-015 0.8272 -3.3923 0.5977 1.91177e-030 -1.25234e-014 8.74653e-015 0.565 -2.3158 0.4082 -3.18055e-015 -1.2921e-014 7.55382e-015 -0.916 -9.2044 0.2193 -9.54166e-015 -1.2921e-014 6.75868e-015 -0.0117 -4.1944 -0.0248 0.0130441 0.0023391 -9.58825e-005 -0.0071 -2.3249 -0.0142 9.93129e-032 -4.77083e-015 1.19271e-015 -0.6113 -8.7231 -2.0637 -9.54166e-015 -1.2921e-014 6.75868e-015 0.1927 -3.8059 -0.2383 0.0163098 0.00304172 -0.000881904 0.1091 -2.1688 -0.1362 -2.06902e-032 5.96354e-016 1.98785e-015 0.6151 -8.0947 -3.564 -9.54166e-015 -1.2921e-014 6.75868e-015 0.4882 -2.341 -0.6462 0.0146613 0.00371659 -0.00329455 0.3574 -1.7166 -0.4742 6.36111e-015 -9.14409e-015 1.15295e-014 1.4199 -1.8761 1.4221 -9.54166e-015 -1.2921e-014 6.75868e-015 1.1472 -3.4929 2.6336 1.91177e-030 -1.25234e-014 8.74653e-015 0.8229 -2.3 1.6571 -3.18055e-015 -1.2921e-014 7.55382e-015 -9.412 3.9771 -0.7758 9.44406 -10.2311 -10.9602 -0.7531 -40.938 0 -146.682 59.8914 130.014 0 -40.1986 -3.55271e-015 -5.25179 50.1489 -7.73596 0 -4.4182 9.239 3.77464e-007 7.51294e-008 7.4943e-007 9.4119 3.9773 -0.7758 8.40231 -9.49737 1.03004 0.7532 -40.9383 -7.10543e-015 166.504 63.2947 -161.922 7.10543e-015 -40.1986 -7.10543e-015 14.2703 48.6484 -7.3435 -7.10543e-015 -4.4182 9.239 3.18055e-015 -3.18055e-015 3.18055e-015 
-22.9444 24.075 47.2863 0.0115509 6.88681e-015 168.958 1.77636e-015 8.7983 -4.7612 1.56546 2.39881 -0.353795 1.77636e-015 8.0291 0.4195 3.14985 4.787 -0.77411 -1.77636e-015 9.9351 -2.2114 3.14985 4.787 -0.774109 3.55271e-015 22.3885 -0.4656 -0.384558 15.6103 0.108452 -0.0001 12.643 3.4389 -0.367392 -31.5416 -0.218284 2.2603 21.606 7.4023 -16.1619 -21.9681 -51.0037 13.5163 -1.1332 -5.0146 3.33905 26.2592 -3.62919 -0.0995 -28.05 -0.2431 -2.67308 -28.5215 -26.5311 0.0679 -23.3996 -0.1402 -25.9654 -20.3846 -7.84831 0.7932 -9.069 2.5189 3.18055e-015 4.27387e-015 -1.59028e-015 -0.8272 -3.3923 0.5977 9.54166e-015 6.90777e-015 -0 -0.5649 -2.3158 0.4082 3.18055e-015 -1.49089e-016 -0 0.9159 -9.2044 0.2193 3.18055e-015 4.27387e-015 -1.59028e-015 0.0117 -4.1944 -0.0248 -0.0128184 0.00234407 8.66894e-005 0.0071 -2.3249 -0.0142 3.18055e-015 3.8763e-015 3.37934e-015 0.6113 -8.7231 -2.0637 3.18055e-015 4.27387e-015 -1.59028e-015 -0.1927 -3.8059 -0.2383 -0.0160294 0.00299087 0.000861054 -0.1091 -2.1688 -0.1362 -3.18055e-015 2.98177e-016 3.37934e-015 -0.6151 -8.0947 -3.5641 3.18055e-015 4.27387e-015 -1.59028e-015 -0.4882 -2.341 -0.6462 -0.0125572 0.00311666 0.00282501 -0.3575 -1.7167 -0.4742 4.27252e-031 5.86415e-015 -4.17448e-015 -1.42 -1.8761 1.4223 3.18055e-015 4.27387e-015 -1.59028e-015 -1.1471 -3.4929 2.6334 9.54166e-015 6.90777e-015 -0 -0.823 -2.3 1.6571 3.18055e-015 -1.49089e-016 -0 -2.2603 21.606 7.4023 4.58638 -11.2702 8.27942 -13.5187 -1.1334 -5.0155 -97.6494 -13.3058 -55.9187 0.0994 -28.0499 -0.2431 -0.0111877 -79.0735 20.0285 -0.0679 -23.3996 -0.1402 0.520117 3.23096 -27.0163 -0.7932 -9.0691 2.5189 6.36111e-015 2.78299e-015 -2.38542e-015 0.8272 -3.3923 0.5977 3.97252e-031 3.57812e-015 -6.36111e-015 0.565 -2.3158 0.4082 6.36111e-015 7.15625e-015 -6.36111e-015 -0.916 -9.2044 0.2193 6.36111e-015 2.78299e-015 -2.38542e-015 -0.0117 -4.1944 -0.0248 0.0129042 0.00230448 -7.74825e-005 -0.0071 -2.3249 -0.0142 -1.37361e-006 1.26456e-006 -5.76511e-007 -0.6113 -8.7231 -2.0637 6.36111e-015 2.78299e-015 -2.38542e-015 0.1927 -3.8059 -0.2383 0.0162929 0.00303351 -0.000857723 0.1091 -2.1688 -0.1362 1.5228e-030 -9.14409e-015 9.54166e-015 0.6151 -8.0947 -3.564 6.36111e-015 2.78299e-015 -2.38542e-015 0.4882 -2.341 -0.6462 0.0146523 0.00371757 -0.00326631 0.3574 -1.7166 -0.4742 9.54166e-015 -1.19271e-015 -1.59028e-015 1.4199 -1.8761 1.4221 6.36111e-015 2.78299e-015 -2.38542e-015 1.1472 -3.4929 2.6336 3.97252e-031 3.57812e-015 -6.36111e-015 0.8229 -2.3 1.6571 6.36111e-015 7.15625e-015 -6.36111e-015 -9.412 3.9771 -0.7758 10.4747 -9.73697 -11.4214 -0.7531 -40.938 7.10543e-015 -145.235 59.4217 127.484 0 -40.1986 -3.55271e-015 -4.96158 50.1426 -7.94977 7.10543e-015 -4.4182 9.239 -3.7571e-007 -7.81259e-008 -7.4816e-007 9.4119 3.9773 -0.7758 8.76143 -9.11001 0.841905 0.7532 -40.9383 7.10543e-015 166.48 63.3496 -161.904 7.10543e-015 -40.1986 -3.55271e-015 14.5486 48.4698 -7.84636 0 -4.4182 9.239 3.94377e-007 3.2135e-006 -1.59367e-007 
-22.5846 24.0796 47.0442 0.0115509 6.88681e-015 168.958 3.55271e-015 8.7983 -4.7612 1.61899 2.33781 -0.357585 1.77636e-015 8.0291 0.4195 3.25661 4.66452 -0.782167 5.32907e-015 9.9351 -2.2114 3.25662 4.66452 -0.782168 -7.10543e-015 22.3885 -0.4656 -0.415163 16.0438 0.118578 -0.0001 12.643 3.4389 -0.393758 -31.1212 -0.232852 2.2603 21.606 7.4023 -15.1719 -21.8931 -50.5861 13.5163 -1.1332 -5.0146 2.65248 26.4117 -3.38236 -0.0995 -28.05 -0.2431 -2.92809 -29.2131 -26.6619 0.0679 -23.3996 -0.1402 -25.9348 -20.6089 -8.00093 0.7932 -9.069 2.5189 3.18055e-015 -5.26779e-015 -0 -0.8272 -3.3923 0.5977 6.89673e-033 -1.98785e-015 1.98785e-016 -0.5649 -2.3158 0.4082 -1.70694e-031 -4.91992e-015 -1.98785e-015 0.9159 -9.2044 0.2193 3.18055e-015 -5.26779e-015 -0 0.0117 -4.1944 -0.0248 -0.0128549 0.00233498 6.54174e-005 0.0071 -2.3249 -0.0142 -3.18055e-015 4.87022e-015 1.98785e-015 0.6113 -8.7231 -2.0637 3.18055e-015 -5.26779e-015 -0 -0.1927 -3.8059 -0.2383 -0.0160345 0.00299 0.000855384 -0.1091 -2.1688 -0.1362 1.24141e-032 3.97569e-016 -1.78906e-015 -0.6151 -8.0947 -3.5641 3.18055e-015 -5.26779e-015 -0 -0.4882 -2.341 -0.6462 -0.0125686 0.00310789 0.00283653 -0.3575 -1.7167 -0.4742 2.24144e-032 -1.2921e-015 9.93923e-016 -1.42 -1.8761 1.4223 3.18055e-015 -5.26779e-015 -0 -1.1471 -3.4929 2.6334 6.89673e-033 -1.98785e-015 1.98785e-016 -0.823 -2.3 1.6571 -1.70694e-031 -4.91992e-015 -1.98785e-015 -2.2603 21.606 7.4023 3.43889 -8.07944 11.4169 -13.5187 -1.1334 -5.0155 -98.375 -12.3857 -60.5728 0.0994 -28.0499 -0.2431 11.4933 -77.4891 31.5992 -0.0679 -23.3996 -0.1402 -0.179213 3.05154 -27.0319 -0.7932 -9.0691 2.5189 4.6346e-031 -4.77083e-015 5.56597e-015 0.8272 -3.3923 0.5977 3.18055e-015 -2.38542e-015 3.97569e-015 0.565 -2.3158 0.4082 6.36111e-015 -5.56597e-015 3.97569e-015 -0.916 -9.2044 0.2193 4.6346e-031 -4.77083e-015 5.56597e-015 -0.0117 -4.1944 -0.0248 0.0129341 0.00234759 -8.85574e-005 -0.0071 -2.3249 -0.0142 3.18055e-015 4.77083e-015 -2.38542e-015 -0.6113 -8.7231 -2.0637 4.6346e-031 -4.77083e-015 5.56597e-015 0.1927 -3.8059 -0.2383 0.0163634 0.00305871 -0.000880935 0.1091 -2.1688 -0.1362 3.18055e-015 3.97569e-015 -2.38542e-015 0.6151 -8.0947 -3.564 4.6346e-031 -4.77083e-015 5.56597e-015 0.4882 -2.341 -0.6462 0.0146296 0.00369911 -0.00327764 0.3574 -1.7166 -0.4742 -1.02177e-006 -1.81694e-005 -9.6623e-006 1.4199 -1.8761 1.4221 4.6346e-031 -4.77083e-015 5.56597e-015 1.1472 -3.4929 2.6336 3.18055e-015 -2.38542e-015 3.97569e-015 0.8229 -2.3 1.6571 6.36111e-015 -5.56597e-015 3.97569e-015 -9.412 3.9771 -0.7758 11.5073 -9.24823 -11.8916 -0.7531 -40.938 0 -143.849 58.9208 125.014 7.10543e-015 -40.1986 -3.55271e-015 -4.66953 50.1389 -8.16509 0 -4.4182 9.239 -7.67423e-007 1.37096e-006 3.62055e-007 9.4119 3.9773 -0.7758 9.12135 -8.72329 0.651611 0.7532 -40.9383 0 166.456 63.4051 -161.885 -3.55271e-015 -40.1986 0 14.8234 48.2898 -8.34601 3.55271e-015 -4.4182 9.239 1.59028e-015 3.18055e-015 -3.18055e-015 
-22.2247 24.0842 46.8019 0.0115509 6.88682e-015 168.958 3.55271e-015 8.7983 -4.7612 1.67246 2.27675 -0.361307 -1.77636e-015 8.0291 0.4195 3.36324 4.54192 -0.789976 -1.77636e-015 9.9351 -2.2114 3.36325 4.54193 -0.789984 3.55271e-015 22.3885 -0.4656 -0.445775 16.4777 0.128943 -0.0001 12.643 3.4389 -0.419873 -30.7007 -0.247123 2.2603 21.606 7.4023 -14.1833 -21.8112 -50.1702 13.5163 -1.1332 -5.0146 1.96436 26.5614 -3.13325 -0.0995 -28.05 -0.2431 -3.18685 -29.9045 -26.7973 0.0679 -23.3996 -0.1402 -25.9048 -20.8333 -8.1536 0.7932 -9.069 2.5189 3.18055e-015 3.97569e-015 1.39149e-015 -0.8272 -3.3923 0.5977 3.18055e-015 4.12478e-015 -9.93923e-016 -0.5649 -2.3158 0.4082 3.18055e-015 3.47873e-016 -0 0.9159 -9.2044 0.2193 3.18055e-015 3.97569e-015 1.39149e-015 0.0117 -4.1944 -0.0248 -0.0127959 0.00231362 9.06282e-005 0.0071 -2.3249 -0.0142 3.18055e-015 1.07344e-014 -4.57205e-015 0.6113 -8.7231 -2.0637 3.18055e-015 3.97569e-015 1.39149e-015 -0.1927 -3.8059 -0.2383 -0.0159946 0.00299234 0.000865383 -0.1091 -2.1688 -0.1362 3.18055e-015 -7.55382e-015 -2.18663e-015 -0.6151 -8.0947 -3.5641 3.18055e-015 3.97569e-015 1.39149e-015 -0.4882 -2.341 -0.6462 -0.0125162 0.00310838 0.00282702 -0.3575 -1.7167 -0.4742 3.18055e-015 6.21202e-015 -3.97569e-016 -1.42 -1.8761 1.4223 3.18055e-015 3.97569e-015 1.39149e-015 -1.1471 -3.4929 2.6334 3.18055e-015 4.12478e-015 -9.93923e-016 -0.823 -2.3 1.6571 3.18055e-015 3.47873e-016 -0 -2.2603 21.606 7.4023 2.09614 -4.98228 14.5883 -13.5187 -1.1334 -5.0155 -99.0752 -11.4553 -65.1985 0.0994 -28.0499 -0.2431 20.2782 -75.4954 40.4888 -0.0679 -23.3996 -0.1402 -0.878405 2.87241 -27.0498 -0.7932 -9.0691 2.5189 4.41391e-032 7.95139e-016 -3.18055e-015 0.8272 -3.3923 0.5977 4.41391e-032 7.95139e-016 -3.18055e-015 0.565 -2.3158 0.4082 -3.18055e-015 -1.59028e-015 -6.36111e-015 -0.916 -9.2044 0.2193 4.41391e-032 7.95139e-016 -3.18055e-015 -0.0117 -4.1944 -0.0248 0.0129279 0.00232222 -8.93962e-005 -0.0071 -2.3249 -0.0142 6.36111e-015 -4.77083e-015 4.77083e-015 -0.6113 -8.7231 -2.0637 4.41391e-032 7.95139e-016 -3.18055e-015 0.1927 -3.8059 -0.2383 0.0163177 0.00304689 -0.000886123 0.1091 -2.1688 -0.1362 6.36111e-015 4.77083e-015 1.59028e-015 0.6151 -8.0947 -3.564 4.41391e-032 7.95139e-016 -3.18055e-015 0.4882 -2.341 -0.6462 0.0145842 0.00369865 -0.00327195 0.3574 -1.7166 -0.4742 -3.18055e-015 7.95139e-016 -3.18055e-015 1.4199 -1.8761 1.4221 4.41391e-032 7.95139e-016 -3.18055e-015 1.1472 -3.4929 2.6336 4.41391e-032 7.95139e-016 -3.18055e-015 0.8229 -2.3 1.6571 -3.18055e-015 -1.59028e-015 -6.36111e-015 -9.412 3.9771 -0.7758 12.5415 -8.76518 -12.3705 -0.7531 -40.938 0 -142.524 58.39 122.605 0 -40.1986 0 -4.37588 50.1377 -8.38181 0 -4.4182 9.239 7.95139e-016 6.36111e-015 -1.59028e-015 9.4119 3.9773 -0.7758 9.48196 -8.33835 0.459075 0.7532 -40.9383 0 166.431 63.4601 -161.867 0 -40.1986 -7.10543e-015 15.0945 48.1083 -8.84227 0 -4.4182 9.239 4.77083e-015 -2.85457e-006 3.18055e-015 
